# xmcd
#
# Track frame offsets:
# 150
# 17515
# 33892
# 53287
# 67482
# 81870
# 102475
# 121660
# 139325
# 152455
# 170045
# 190292
# 206355
# 222510
#
# Disc length: 3143 seconds
#
#
# Revision: 2
# Processed by: cddbd v1.5.2PL0 Copyright (c) Steve Scherf et al.
# Submitted via: FreeRIP 2.945 
#
DISCID=c00c450e
DTITLE=Gian e Giovanni - O Melhor de Gian e Gionanni
DYEAR=1998
DGENRE=Country
TTITLE0=O que e que a gente nao faz por amor
TTITLE1=123
TTITLE2=Eu busco uma estela
TTITLE3=Casinha branca
TTITLE4=Amor demais
TTITLE5=Amiga, amigo
TTITLE6=Cade aquele amor
TTITLE7=Nossa Senhora Aparecida
TTITLE8=Doidinho, doidinho
TTITLE9=Depois do adeus
TTITLE10=Nao vivo sem voce
TTITLE11=Um amor para dois amigos
TTITLE12=To pensando nela
TTITLE13=Viola caipira
EXTD=YEAR: 1998
EXTT0=
EXTT1=
EXTT2=
EXTT3=
EXTT4=
EXTT5=
EXTT6=
EXTT7=
EXTT8=
EXTT9=
EXTT10=
EXTT11=
EXTT12=
EXTT13=
PLAYORDER=
